<?xml version="1.0" encoding="UTF-8" standalone="no"?>
<svg
   xmlns:ns1="http://wanglongqi.github.io/WriteTeX"
   xmlns:dc="http://purl.org/dc/elements/1.1/"
   xmlns:cc="http://creativecommons.org/ns#"
   xmlns:rdf="http://www.w3.org/1999/02/22-rdf-syntax-ns#"
   xmlns:svg="http://www.w3.org/2000/svg"
   xmlns="http://www.w3.org/2000/svg"
   xmlns:sodipodi="http://sodipodi.sourceforge.net/DTD/sodipodi-0.dtd"
   xmlns:inkscape="http://www.inkscape.org/namespaces/inkscape"
   enable-background="new 0 0 1000 600"
   height="279.97839"
   id="Shape_1_5_"
   overflow="visible"
   version="1.1"
   viewBox="0 0 398.61361 279.97839"
   width="398.61362"
   xml:space="preserve"
   sodipodi:docname="modelagemSedanExemplo3.svg"
   style="overflow:visible"
   inkscape:version="0.92.4 (5da689c313, 2019-01-14)"><metadata
     id="metadata12"><rdf:RDF><cc:Work
         rdf:about=""><dc:format>image/svg+xml</dc:format><dc:type
           rdf:resource="http://purl.org/dc/dcmitype/StillImage" /><dc:title></dc:title></cc:Work></rdf:RDF></metadata><defs
     id="defs10"><marker
       inkscape:stockid="Arrow1Lend"
       orient="auto"
       refY="0"
       refX="0"
       id="Arrow1Lend"
       style="overflow:visible"
       inkscape:isstock="true"><path
         id="path821"
         d="M 0,0 5,-5 -12.5,0 5,5 Z"
         style="fill:#000000;fill-opacity:1;fill-rule:evenodd;stroke:#000000;stroke-width:1.00000003pt;stroke-opacity:1"
         transform="matrix(-0.8,0,0,-0.8,-10,0)"
         inkscape:connector-curvature="0" /></marker><marker
       inkscape:stockid="Arrow1Lend"
       orient="auto"
       refY="0"
       refX="0"
       id="Arrow1Lend-8"
       style="overflow:visible"
       inkscape:isstock="true"><path
         inkscape:connector-curvature="0"
         id="path821-4"
         d="M 0,0 5,-5 -12.5,0 5,5 Z"
         style="fill:#000000;fill-opacity:1;fill-rule:evenodd;stroke:#000000;stroke-width:1.00000003pt;stroke-opacity:1"
         transform="matrix(-0.8,0,0,-0.8,-10,0)" /></marker><marker
       inkscape:stockid="Arrow1Lend"
       orient="auto"
       refY="0"
       refX="0"
       id="Arrow1Lend-8-8"
       style="overflow:visible"
       inkscape:isstock="true"><path
         inkscape:connector-curvature="0"
         id="path821-4-7"
         d="M 0,0 5,-5 -12.5,0 5,5 Z"
         style="fill:#000000;fill-opacity:1;fill-rule:evenodd;stroke:#000000;stroke-width:1.00000003pt;stroke-opacity:1"
         transform="matrix(-0.8,0,0,-0.8,-10,0)" /></marker><marker
       inkscape:stockid="Arrow1Lend"
       orient="auto"
       refY="0"
       refX="0"
       id="Arrow1Lend-8-4"
       style="overflow:visible"
       inkscape:isstock="true"><path
         inkscape:connector-curvature="0"
         id="path821-4-5"
         d="M 0,0 5,-5 -12.5,0 5,5 Z"
         style="fill:#000000;fill-opacity:1;fill-rule:evenodd;stroke:#000000;stroke-width:1.00000003pt;stroke-opacity:1"
         transform="matrix(-0.8,0,0,-0.8,-10,0)" /></marker></defs><sodipodi:namedview
     pagecolor="#ffffff"
     bordercolor="#666666"
     borderopacity="1"
     objecttolerance="10"
     gridtolerance="10"
     guidetolerance="10"
     inkscape:pageopacity="0"
     inkscape:pageshadow="2"
     inkscape:window-width="1366"
     inkscape:window-height="705"
     id="namedview8"
     showgrid="false"
     fit-margin-top="0"
     fit-margin-left="0"
     fit-margin-right="0"
     fit-margin-bottom="0"
     inkscape:zoom="0.41436457"
     inkscape:cx="-61.939983"
     inkscape:cy="498.94807"
     inkscape:window-x="-8"
     inkscape:window-y="-8"
     inkscape:window-maximized="1"
     inkscape:current-layer="Shape_1" /><g
     id="Shape_1"
     transform="matrix(0.3417996,0,0,0.3417996,-21.930017,-660.90121)"><g
       transform="rotate(30,-3013.9189,1409.7921)"
       style="overflow:visible"
       id="g4-0-3"><path
         d="m 251.99,369.532 c -3.653,0 -6.615,2.962 -6.615,6.615 0,3.653 2.962,6.615 6.615,6.615 3.653,0 6.615,-2.962 6.615,-6.615 0,-3.653 -2.961,-6.615 -6.615,-6.615 z m 0,18.772 c -1.548,0 -2.804,1.256 -2.804,2.805 0,1.548 1.255,2.804 2.804,2.804 1.549,0 2.804,-1.256 2.804,-2.804 0,-1.549 -1.255,-2.805 -2.804,-2.805 z m 7.431,8.607 v 22.711 c 6.642,-1.127 12.776,-3.74 18.053,-7.483 L 261.415,396.08 c -0.648,0.307 -1.312,0.587 -1.994,0.831 z m 12.505,-11.337 16.058,16.058 c 3.744,-5.276 6.354,-11.413 7.482,-18.055 h -22.713 c -0.245,0.682 -0.52,1.349 -0.827,1.997 z m -0.002,-18.852 c 0.307,0.648 0.585,1.313 0.83,1.995 h 22.712 c -1.127,-6.642 -3.74,-12.776 -7.483,-18.054 z m -29.358,-10.507 c 0.649,-0.308 1.313,-0.587 1.995,-0.831 v -22.711 c -6.642,1.127 -12.776,3.74 -18.053,7.483 z m 9.424,-52.279 c -39.881,0 -72.212,32.33 -72.212,72.212 0,39.882 32.331,72.212 72.212,72.212 39.882,0 72.212,-32.33 72.212,-72.212 0,-39.882 -32.33,-72.212 -72.212,-72.212 z m 0,123.792 c -28.487,0 -51.58,-23.093 -51.58,-51.58 0,-28.486 23.093,-51.58 51.58,-51.58 28.487,0 51.58,23.094 51.58,51.58 0,28.487 -23.093,51.58 -51.58,51.58 z m 0,-63.739 c 1.549,0 2.804,-1.256 2.804,-2.805 0,-1.548 -1.255,-2.804 -2.804,-2.804 -1.548,0 -2.804,1.256 -2.804,2.804 0.001,1.549 1.256,2.805 2.804,2.805 z m 25.484,-23.834 c -5.276,-3.743 -11.412,-6.355 -18.053,-7.482 v 22.711 c 0.682,0.244 1.347,0.522 1.995,0.83 z m -45.418,26.566 -16.058,-16.059 c -3.744,5.277 -6.355,11.413 -7.482,18.055 h 22.713 c 0.244,-0.682 0.519,-1.348 0.827,-1.996 z m -5.55,45.419 c 5.277,3.743 11.413,6.355 18.055,7.482 v -22.711 c -0.682,-0.244 -1.348,-0.522 -1.996,-0.83 z m 4.721,-28.563 h -22.711 c 1.127,6.642 3.739,12.777 7.482,18.055 l 16.059,-16.06 c -0.307,-0.648 -0.586,-1.313 -0.83,-1.995 z m 8.606,-7.431 c 0,-1.549 -1.255,-2.804 -2.804,-2.804 -1.549,0 -2.804,1.255 -2.804,2.804 0,1.549 1.255,2.804 2.804,2.804 1.548,0 2.804,-1.255 2.804,-2.804 z m 24.315,0 c 0,1.549 1.255,2.804 2.804,2.804 1.549,0 2.804,-1.255 2.804,-2.804 0,-1.549 -1.255,-2.804 -2.804,-2.804 -1.549,0.001 -2.804,1.256 -2.804,2.804 z m 547.493,-6.614 c -3.653,0 -6.615,2.962 -6.615,6.615 0,3.653 2.962,6.615 6.615,6.615 3.653,0 6.615,-2.962 6.615,-6.615 0,-3.653 -2.962,-6.615 -6.615,-6.615 z m -9.424,-13.317 c 0.648,-0.308 1.313,-0.587 1.994,-0.831 v -22.711 c -6.642,1.127 -12.776,3.74 -18.054,7.483 z m 9.424,32.089 c -1.549,0 -2.804,1.256 -2.804,2.805 0,1.548 1.255,2.804 2.804,2.804 1.549,0 2.804,-1.256 2.804,-2.804 -0.001,-1.549 -1.256,-2.805 -2.804,-2.805 z m 7.43,8.607 v 22.711 c 6.642,-1.127 12.775,-3.74 18.053,-7.483 L 821.065,396.08 c -0.648,0.307 -1.312,0.587 -1.994,0.831 z m 13.331,-13.334 c -0.244,0.682 -0.52,1.349 -0.826,1.997 l 16.058,16.058 c 3.744,-5.276 6.354,-11.413 7.482,-18.055 z m 104.874,-91.42 C 927.475,277.153 902.38,271.922 883.264,265.68 749.776,233.438 705.382,243.933 683.102,240.792 c -4.495,-1.199 -8.503,-5.123 -12.179,-7.413 -8.057,-5.019 -16.418,-9.434 -24.358,-14.298 -13.119,-8.036 -73.653,-41.146 -90.02,-47.128 -35.963,-13.142 -92.818,-23.68 -229.815,-12.708 -5.56,-1.528 -8.916,-6.016 -14.826,-7.414 -5.846,-1.383 -11.214,1.693 -15.356,2.648 0.075,4.491 -0.326,8.136 -1.059,11.649 -26.775,11.291 -53.869,19.953 -80.488,31.242 -11.108,4.711 -22.569,9.32 -33.89,14.297 -7.042,3.097 -13.77,7.495 -21.71,10.062 -8.624,2.786 -18.051,1.527 -27.536,3.706 -17.267,3.967 -35.99,4.497 -55.071,4.766 -2.181,3.738 -5.977,7.503 -6.884,12.18 3.305,1.02 4.412,3.298 4.236,7.942 -5.84,8.653 -4.274,20.981 -4.236,34.949 -12.441,6.37 -14.333,29.711 -11.12,48.187 -0.353,1.589 -0.706,3.178 -1.059,4.767 0.665,5.223 2.365,10.742 2.647,16.415 4.672,3.133 9.968,8.167 13.238,12.709 1.595,2.215 2.371,6.033 5.295,6.884 15.631,11.41 94.785,13.768 94.785,13.768 l 4.164,0.228 c -0.637,-3.934 -0.973,-7.969 -0.973,-12.082 0,-41.478 33.625,-75.102 75.102,-75.102 41.478,0 75.102,33.624 75.102,75.102 0,6.966 -0.952,18.277 -2.728,24.678 l 416.073,-0.736 c -2.527,-7.52 -3.898,-15.57 -3.898,-23.941 0,-41.478 33.624,-75.102 75.102,-75.102 41.478,0 75.102,33.624 75.102,75.102 0,7.27 -1.036,14.297 -2.964,20.945 l 4.252,-0.089 c 0,0 32.779,-1.584 40.773,-5.296 7.994,-3.711 11.12,-14.297 11.12,-14.297 l -2.118,-22.24 c 0.001,-0.001 9.847,-47.13 -0.529,-63.015 z M 272.719,237.621 c -24.887,-16.535 -11.702,-35.842 -12.373,-35.781 -0.398,0.354 -0.685,0.636 -0.865,0.827 0.528,-0.559 0.788,-0.82 0.865,-0.827 6.412,-5.714 43.006,-31.271 172.82,-31.474 4.06,22.768 8.12,52.68 12.179,75.446 -52.233,-1.583 -155.045,-0.7 -172.626,-8.191 z m 334.662,8.467 c -11.408,0 -124.969,-0.031 -124.969,-0.031 0,0 -18.331,-48.33 -24.887,-75.157 0.763,0.07 23.298,1.055 23.298,1.055 0,0 44.613,5.079 72.546,14.298 21.976,7.253 65.363,36.403 66.19,38.126 -13.053,0.668 -16.143,10.95 -12.178,21.709 z m 204.26,57.848 c -39.882,0 -72.212,32.33 -72.212,72.212 0,39.882 32.33,72.212 72.212,72.212 39.882,0 72.212,-32.33 72.212,-72.212 0,-39.882 -32.331,-72.212 -72.212,-72.212 z m 0,123.792 c -28.486,0 -51.58,-23.093 -51.58,-51.58 0,-28.486 23.094,-51.58 51.58,-51.58 28.487,0 51.58,23.094 51.58,51.58 0,28.487 -23.093,51.58 -51.58,51.58 z m -19.935,-61.007 -16.059,-16.059 c -3.743,5.277 -6.354,11.413 -7.481,18.055 h 22.713 c 0.244,-0.682 0.519,-1.348 0.827,-1.996 z m 7.777,9.425 c 0,-1.549 -1.256,-2.804 -2.805,-2.804 -1.548,0 -2.804,1.255 -2.804,2.804 0,1.549 1.256,2.804 2.804,2.804 1.55,0 2.805,-1.255 2.805,-2.804 z m 12.158,-12.157 c 1.549,0 2.804,-1.256 2.804,-2.805 0,-1.548 -1.255,-2.804 -2.804,-2.804 -1.549,0 -2.804,1.256 -2.804,2.804 0,1.549 1.255,2.805 2.804,2.805 z m 25.484,-23.834 c -5.277,-3.743 -11.412,-6.355 -18.054,-7.482 v 22.711 c 0.682,0.244 1.347,0.522 1.995,0.83 z m -13.327,35.991 c 0,1.549 1.256,2.804 2.805,2.804 1.548,0 2.804,-1.255 2.804,-2.804 0,-1.549 -1.256,-2.804 -2.804,-2.804 -1.549,0.001 -2.805,1.256 -2.805,2.804 z m -37.642,35.994 c 5.277,3.743 11.413,6.355 18.055,7.482 v -22.711 c -0.683,-0.244 -1.348,-0.522 -1.996,-0.83 z m 4.721,-28.563 h -22.711 c 1.127,6.642 3.739,12.777 7.482,18.055 l 16.059,-16.06 c -0.308,-0.648 -0.586,-1.313 -0.83,-1.995 z m 41.527,-14.86 h 22.711 c -1.127,-6.642 -3.739,-12.776 -7.482,-18.054 l -16.059,16.059 c 0.307,0.648 0.586,1.313 0.83,1.995 z"
         id="path2-4-7"
         inkscape:connector-curvature="0"
         style="fill:#323232" /></g><path
       style="overflow:visible;fill:none;stroke:#000000;stroke-width:14.62845516;stroke-linecap:butt;stroke-linejoin:miter;stroke-miterlimit:4;stroke-dasharray:none;stroke-opacity:1"
       d="M 67.812241,2077.6063 1226.7289,2745.4087"
       id="path1565-4-6"
       inkscape:connector-curvature="0" /><path
       style="overflow:visible;fill:none;stroke:#000000;stroke-width:8.77707291;stroke-linecap:butt;stroke-linejoin:miter;stroke-miterlimit:4;stroke-dasharray:none;stroke-opacity:1;marker-end:url(#Arrow1Lend-8-4)"
       d="m 537.05955,2216.382 v 467.979"
       id="path816-5-9"
       inkscape:connector-curvature="0" /><g
       id="g1883"
       style="overflow:visible;stroke-width:0.04123237"
       transform="matrix(24.252787,0,0,24.252787,-4072.178,-78.73067)"
       ns1:text="$P$"><g
   id="g1881">
<g
   id="g1879"
   style="fill:#000000;fill-opacity:1">
  <path
   id="path1877"
   transform="translate(178.584,110.991)"
   d="M 3.015625,-3.15625 H 4.71875 c 1.40625,0 2.796875,-1.03125 2.796875,-2.140625 0,-0.78125 -0.65625,-1.515625 -1.96875,-1.515625 h -3.21875 c -0.1875,0 -0.296875,0 -0.296875,0.1875 0,0.125 0.078125,0.125 0.28125,0.125 0.125,0 0.3125,0.015625 0.421875,0.015625 0.171875,0.03125 0.21875,0.046875 0.21875,0.171875 0,0.03125 0,0.0625 -0.03125,0.1875 l -1.34375,5.34375 c -0.09375,0.390625 -0.109375,0.46875 -0.90625,0.46875 -0.15625,0 -0.265625,0 -0.265625,0.1875 C 0.40625,0 0.515625,0 0.546875,0 0.828125,0 1.53125,-0.03125 1.8125,-0.03125 c 0.21875,0 0.4375,0.015625 0.640625,0.015625 0.21875,0 0.4375,0.015625 0.640625,0.015625 0.078125,0 0.203125,0 0.203125,-0.203125 0,-0.109375 -0.09375,-0.109375 -0.28125,-0.109375 -0.359375,0 -0.640625,0 -0.640625,-0.171875 0,-0.0625 0.015625,-0.109375 0.03125,-0.171875 z M 3.734375,-6.125 C 3.828125,-6.46875 3.84375,-6.5 4.28125,-6.5 h 0.953125 c 0.828125,0 1.359375,0.265625 1.359375,0.953125 0,0.390625 -0.203125,1.25 -0.59375,1.609375 -0.5,0.453125 -1.09375,0.53125 -1.53125,0.53125 H 3.0625 Z m 0,0"
   style="stroke:none"
   inkscape:connector-curvature="0" />
</g>
</g>
</g><path
       style="overflow:visible;fill:none;stroke:#000000;stroke-width:14.62845516;stroke-linecap:butt;stroke-linejoin:miter;stroke-miterlimit:4;stroke-dasharray:14.6284548, 29.2569096;stroke-dashoffset:0;stroke-opacity:1"
       d="M 160.56858,2745.4087 H 1226.7289"
       id="path1565-4-1"
       inkscape:connector-curvature="0" /><g
       id="g2001"
       style="overflow:visible;stroke-width:0.04123237"
       transform="matrix(24.252787,0,0,24.252787,-3600.2,20.876592)"
       ns1:text="$\\theta$"><g
   id="g1999">
<g
   id="g1997"
   style="fill:#000000;fill-opacity:1">
  <path
   id="path1995"
   transform="translate(178.584,110.991)"
   d="m 4.53125,-4.984375 c 0,-0.65625 -0.171875,-2.046875 -1.1875,-2.046875 -1.390625,0 -2.921875,2.8125 -2.921875,5.09375 0,0.9375 0.28125,2.046875 1.1875,2.046875 1.40625,0 2.921875,-2.859375 2.921875,-5.09375 z M 1.46875,-3.625 C 1.640625,-4.25 1.84375,-5.046875 2.25,-5.765625 2.515625,-6.25 2.875,-6.8125 3.328125,-6.8125 c 0.484375,0 0.546875,0.640625 0.546875,1.203125 0,0.5 -0.078125,1 -0.3125,1.984375 z m 2,0.328125 C 3.359375,-2.84375 3.15625,-2 2.765625,-1.28125 c -0.34375,0.6875 -0.71875,1.171875 -1.15625,1.171875 -0.328125,0 -0.53125,-0.296875 -0.53125,-1.21875 0,-0.421875 0.0625,-1 0.3125,-1.96875 z m 0,0"
   style="stroke:none"
   inkscape:connector-curvature="0" />
</g>
</g>
</g></g></svg>