<?xml version="1.0" encoding="UTF-8" standalone="no"?>
<!-- Created with Inkscape (http://www.inkscape.org/) -->

<svg
   xmlns:ns1="http://wanglongqi.github.io/WriteTeX"
   xmlns:ns0="http://www.iki.fi/pav/software/textext/"
   xmlns:osb="http://www.openswatchbook.org/uri/2009/osb"
   xmlns:dc="http://purl.org/dc/elements/1.1/"
   xmlns:cc="http://creativecommons.org/ns#"
   xmlns:rdf="http://www.w3.org/1999/02/22-rdf-syntax-ns#"
   xmlns:svg="http://www.w3.org/2000/svg"
   xmlns="http://www.w3.org/2000/svg"
   xmlns:sodipodi="http://sodipodi.sourceforge.net/DTD/sodipodi-0.dtd"
   xmlns:inkscape="http://www.inkscape.org/namespaces/inkscape"
   inkscape:version="0.92.4 (5da689c313, 2019-01-14)"
   version="1.1"
   id="svg2"
   height="185.23122"
   width="239.80244"
   sodipodi:docname="modelagemPontoForcas.svg">
  <sodipodi:namedview
     id="base"
     pagecolor="#ffffff"
     bordercolor="#666666"
     borderopacity="1.0"
     inkscape:pageopacity="0.0"
     inkscape:pageshadow="2"
     inkscape:zoom="2.0000001"
     inkscape:cx="110.80346"
     inkscape:cy="57.988172"
     inkscape:document-units="px"
     inkscape:current-layer="svg2"
     showgrid="false"
     units="cm"
     inkscape:window-width="1366"
     inkscape:window-height="705"
     inkscape:window-x="-8"
     inkscape:window-y="-8"
     inkscape:window-maximized="1"
     fit-margin-top="0"
     fit-margin-left="0"
     fit-margin-right="0"
     fit-margin-bottom="0" />
  <defs
     id="defs4">
    <marker
       inkscape:stockid="Arrow1Lend"
       orient="auto"
       refY="0.0"
       refX="0.0"
       id="marker1508"
       style="overflow:visible;"
       inkscape:isstock="true">
      <path
         id="path1506"
         d="M 0.0,0.0 L 5.0,-5.0 L -12.5,0.0 L 5.0,5.0 L 0.0,0.0 z "
         style="fill-rule:evenodd;stroke:#ff0000;stroke-width:1pt;stroke-opacity:1;fill:#ff0000;fill-opacity:1"
         transform="scale(0.8) rotate(180) translate(12.5,0)" />
    </marker>
    <marker
       inkscape:isstock="true"
       style="overflow:visible;"
       id="marker1402"
       refX="0.0"
       refY="0.0"
       orient="auto"
       inkscape:stockid="Arrow1Lend"
       inkscape:collect="always">
      <path
         transform="scale(0.8) rotate(180) translate(12.5,0)"
         style="fill-rule:evenodd;stroke:#ff0000;stroke-width:1pt;stroke-opacity:1;fill:#ff0000;fill-opacity:1"
         d="M 0.0,0.0 L 5.0,-5.0 L -12.5,0.0 L 5.0,5.0 L 0.0,0.0 z "
         id="path1400" />
    </marker>
    <marker
       inkscape:stockid="Arrow1Lend"
       orient="auto"
       refY="0.0"
       refX="0.0"
       id="Arrow1Lend"
       style="overflow:visible;"
       inkscape:isstock="true"
       inkscape:collect="always">
      <path
         id="path1037"
         d="M 0.0,0.0 L 5.0,-5.0 L -12.5,0.0 L 5.0,5.0 L 0.0,0.0 z "
         style="fill-rule:evenodd;stroke:#ff0000;stroke-width:1pt;stroke-opacity:1;fill:#ff0000;fill-opacity:1"
         transform="scale(0.8) rotate(180) translate(12.5,0)" />
    </marker>
    <marker
       inkscape:stockid="Arrow1Mend"
       orient="auto"
       refY="0"
       refX="0"
       id="Arrow1Mend"
       style="overflow:visible">
      <path
         id="path5252"
         d="M 0,0 5,-5 -12.5,0 5,5 0,0 z"
         style="fill-rule:evenodd;stroke:#000000;stroke-width:1pt"
         transform="matrix(-0.4,0,0,-0.4,-4,0)"
         inkscape:connector-curvature="0" />
    </marker>
    <marker
       inkscape:stockid="Arrow2Send"
       orient="auto"
       refY="0"
       refX="0"
       id="Arrow2Send"
       style="overflow:visible">
      <path
         id="path5276"
         style="fill-rule:evenodd;stroke-width:0.625;stroke-linejoin:round"
         d="M 8.7185878,4.0337352 -2.2072895,0.01601326 8.7185884,-4.0017078 c -1.7454984,2.3720609 -1.7354408,5.6174519 -6e-7,8.035443 z"
         transform="matrix(-0.3,0,0,-0.3,0.69,0)"
         inkscape:connector-curvature="0" />
    </marker>
    <marker
       inkscape:stockid="Arrow2Lend"
       orient="auto"
       refY="0"
       refX="0"
       id="Arrow2Lend"
       style="overflow:visible">
      <path
         id="path5264"
         style="fill-rule:evenodd;stroke-width:0.625;stroke-linejoin:round"
         d="M 8.7185878,4.0337352 -2.2072895,0.01601326 8.7185884,-4.0017078 c -1.7454984,2.3720609 -1.7354408,5.6174519 -6e-7,8.035443 z"
         transform="matrix(-1.1,0,0,-1.1,-1.1,0)"
         inkscape:connector-curvature="0" />
    </marker>
    <linearGradient
       id="linearGradient3775"
       osb:paint="solid">
      <stop
         style="stop-color:#ff420e;stop-opacity:1;"
         offset="0"
         id="stop3777" />
    </linearGradient>
    <marker
       inkscape:stockid="Arrow1Mend"
       orient="auto"
       refY="0"
       refX="0"
       id="Arrow1Mend-9"
       style="overflow:visible">
      <path
         id="path5252-1"
         d="M 0,0 5,-5 -12.5,0 5,5 0,0 z"
         style="fill-rule:evenodd;stroke:#000000;stroke-width:1pt"
         transform="matrix(-0.4,0,0,-0.4,-4,0)"
         inkscape:connector-curvature="0" />
    </marker>
    <marker
       inkscape:stockid="Arrow1Mend"
       orient="auto"
       refY="0"
       refX="0"
       id="Arrow1Mend-8"
       style="overflow:visible">
      <path
         id="path5252-9"
         d="M 0,0 5,-5 -12.5,0 5,5 0,0 z"
         style="fill-rule:evenodd;stroke:#000000;stroke-width:1pt"
         transform="matrix(-0.4,0,0,-0.4,-4,0)"
         inkscape:connector-curvature="0" />
    </marker>
    <marker
       inkscape:stockid="Arrow1Mend"
       orient="auto"
       refY="0"
       refX="0"
       id="Arrow1Mend-6"
       style="overflow:visible">
      <path
         inkscape:connector-curvature="0"
         id="path5252-3"
         d="M 0,0 5,-5 -12.5,0 5,5 0,0 z"
         style="fill-rule:evenodd;stroke:#000000;stroke-width:1pt"
         transform="matrix(-0.4,0,0,-0.4,-4,0)" />
    </marker>
    <marker
       inkscape:stockid="Arrow1Mend"
       orient="auto"
       refY="0"
       refX="0"
       id="Arrow1Mend-3"
       style="overflow:visible">
      <path
         inkscape:connector-curvature="0"
         id="path5252-0"
         d="M 0,0 5,-5 -12.5,0 5,5 0,0 z"
         style="fill-rule:evenodd;stroke:#000000;stroke-width:1pt"
         transform="matrix(-0.4,0,0,-0.4,-4,0)" />
    </marker>
    <marker
       inkscape:stockid="Arrow1Mend"
       orient="auto"
       refY="0"
       refX="0"
       id="Arrow1Mend-36"
       style="overflow:visible">
      <path
         id="path5252-7"
         d="M 0,0 5,-5 -12.5,0 5,5 0,0 z"
         style="fill-rule:evenodd;stroke:#000000;stroke-width:1pt"
         transform="matrix(-0.4,0,0,-0.4,-4,0)"
         inkscape:connector-curvature="0" />
    </marker>
    <marker
       inkscape:stockid="Arrow1Mend"
       orient="auto"
       refY="0"
       refX="0"
       id="Arrow1Mend-35"
       style="overflow:visible">
      <path
         id="path5252-6"
         d="M 0,0 5,-5 -12.5,0 5,5 0,0 z"
         style="fill-rule:evenodd;stroke:#000000;stroke-width:1pt"
         transform="matrix(-0.4,0,0,-0.4,-4,0)"
         inkscape:connector-curvature="0" />
    </marker>
    <marker
       inkscape:stockid="Arrow1Mend"
       orient="auto"
       refY="0"
       refX="0"
       id="Arrow1Mend-91"
       style="overflow:visible">
      <path
         id="path5252-2"
         d="M 0,0 5,-5 -12.5,0 5,5 0,0 z"
         style="fill-rule:evenodd;stroke:#000000;stroke-width:1pt"
         transform="matrix(-0.4,0,0,-0.4,-4,0)"
         inkscape:connector-curvature="0" />
    </marker>
    <marker
       inkscape:stockid="Arrow1Mend"
       orient="auto"
       refY="0"
       refX="0"
       id="Arrow1Mend-0"
       style="overflow:visible">
      <path
         id="path5252-93"
         d="M 0,0 5,-5 -12.5,0 5,5 0,0 z"
         style="fill-rule:evenodd;stroke:#000000;stroke-width:1pt"
         transform="matrix(-0.4,0,0,-0.4,-4,0)"
         inkscape:connector-curvature="0" />
    </marker>
    <marker
       inkscape:stockid="Arrow1Mend"
       orient="auto"
       refY="0"
       refX="0"
       id="Arrow1Mend-2"
       style="overflow:visible">
      <path
         id="path5252-28"
         d="M 0,0 5,-5 -12.5,0 5,5 0,0 z"
         style="fill-rule:evenodd;stroke:#000000;stroke-width:1pt"
         transform="matrix(-0.4,0,0,-0.4,-4,0)"
         inkscape:connector-curvature="0" />
    </marker>
  </defs>
  <metadata
     id="metadata7">
    <rdf:RDF>
      <cc:Work
         rdf:about="">
        <dc:format>image/svg+xml</dc:format>
        <dc:type
           rdf:resource="http://purl.org/dc/dcmitype/StillImage" />
        <dc:title />
      </cc:Work>
    </rdf:RDF>
  </metadata>
  <g
     inkscape:label="Layer 1"
     inkscape:groupmode="layer"
     id="layer1"
     transform="translate(-105.25704,-838.15009)">
    <path
       style="fill:none;stroke:#000000;stroke-width:0.66447759;stroke-linecap:butt;stroke-linejoin:miter;stroke-miterlimit:4;stroke-opacity:1;stroke-dasharray:none"
       d="m 174.95624,863.65069 0,90.40863"
       id="path2989"
       inkscape:connector-curvature="0" />
    <path
       style="fill:none;stroke:#000000;stroke-width:0.66447759;stroke-linecap:butt;stroke-linejoin:miter;stroke-miterlimit:4;stroke-opacity:1;stroke-dasharray:none"
       d="m 174.67908,953.84531 145.11672,0"
       id="path2991"
       inkscape:connector-curvature="0" />
    <path
       style="fill:none;stroke:#000000;stroke-width:0.66447759;stroke-linecap:butt;stroke-linejoin:miter;stroke-miterlimit:4;stroke-opacity:1;stroke-dasharray:0.66447759, 1.99343277;stroke-dashoffset:0"
       d="m 128.08662,1000.7154 137.55009,0"
       id="path3761"
       inkscape:connector-curvature="0" />
    <path
       style="fill:none;stroke:#000000;stroke-width:0.66447759;stroke-linecap:butt;stroke-linejoin:miter;stroke-miterlimit:4;stroke-opacity:1;stroke-dasharray:0.66447759, 1.99343277;stroke-dashoffset:0"
       d="m 312.36184,953.81486 -46.98023,46.98024"
       id="path3763"
       inkscape:connector-curvature="0" />
    <path
       style="fill:none;stroke:#000000;stroke-width:0.66447759;stroke-linecap:butt;stroke-linejoin:miter;stroke-miterlimit:4;stroke-opacity:1;stroke-dasharray:none"
       d="M 174.93225,953.84074 121.985,1006.788"
       id="path3765"
       inkscape:connector-curvature="0" />
    <path
       style="fill:none;stroke:#000000;stroke-width:0.66447759;stroke-linecap:butt;stroke-linejoin:miter;stroke-miterlimit:4;stroke-opacity:1;stroke-dasharray:0.66447759, 1.99343277;stroke-dashoffset:0"
       d="m 265.28199,922.6934 0,77.9848"
       id="path3767"
       inkscape:connector-curvature="0" />
    <path
       sodipodi:type="arc"
       style="fill:#000000;fill-opacity:1;stroke:#000000;stroke-width:1;stroke-linecap:butt;stroke-linejoin:miter;stroke-miterlimit:4;stroke-opacity:1;stroke-dasharray:none;stroke-dashoffset:0"
       id="path3773"
       sodipodi:cx="261.9375"
       sodipodi:cy="76.093994"
       sodipodi:rx="9.4375"
       sodipodi:ry="9.4375"
       d="m 271.375,76.093994 c 0,5.212187 -4.22531,9.4375 -9.4375,9.4375 -5.21219,0 -9.4375,-4.225313 -9.4375,-9.4375 0,-5.212187 4.22531,-9.4375 9.4375,-9.4375 5.21219,0 9.4375,4.225313 9.4375,9.4375 z"
       transform="matrix(0.52656714,0,0,0.52656714,127.42451,877.56056)" />
    <path
       style="fill:none;stroke:#000000;stroke-width:1.3401686;stroke-linecap:butt;stroke-linejoin:miter;stroke-miterlimit:4;stroke-opacity:1;stroke-dasharray:none;marker-end:url(#Arrow1Mend)"
       d="m 175.05578,953.60861 83.07478,-33.02855"
       id="path5237"
       inkscape:connector-curvature="0" />
    <path
       style="fill:#ff0000;stroke:#ff0000;stroke-width:0.5;stroke-linecap:butt;stroke-linejoin:miter;stroke-miterlimit:4;stroke-opacity:1;stroke-dasharray:none;marker-end:url(#marker1402)"
       d="m 174.89956,859.96499 0,-19.27327"
       id="path6057"
       inkscape:connector-curvature="0" />
    <path
       style="fill:#ff0000;stroke:#ff0000;stroke-width:0.5;stroke-linecap:butt;stroke-linejoin:miter;stroke-miterlimit:4;stroke-opacity:1;stroke-dasharray:none;marker-end:url(#marker1508)"
       d="m 323.27764,953.81428 19.24022,0"
       id="path6059"
       inkscape:connector-curvature="0" />
    <path
       style="fill:#ff0000;stroke:#ff0000;stroke-width:0.5;stroke-linecap:butt;stroke-linejoin:miter;stroke-miterlimit:4;stroke-opacity:1;stroke-dasharray:none;marker-end:url(#Arrow1Lend)"
       d="m 119.92008,1008.7182 -12.86584,12.8659"
       id="path6433"
       inkscape:connector-curvature="0" />
    <path
       style="fill:none;stroke:#000000;stroke-width:0.66447759;stroke-linecap:butt;stroke-linejoin:miter;stroke-miterlimit:4;stroke-opacity:1;stroke-dasharray:0.66447759, 1.99343277;stroke-dashoffset:0"
       d="m 175.0873,953.84645 90.27249,46.85845"
       id="path6621"
       inkscape:connector-curvature="0" />
    <path
       style="fill:none;stroke:#000000;stroke-width:0.66447759;stroke-linecap:butt;stroke-linejoin:miter;stroke-miterlimit:4;stroke-opacity:1;stroke-dasharray:0.66447759, 1.99343277;stroke-dashoffset:0"
       d="m 174.88796,870.28876 90.27249,46.85843"
       id="path6621-1"
       inkscape:connector-curvature="0" />
    <path
       style="fill:none;stroke:#000000;stroke-width:1;stroke-linecap:butt;stroke-linejoin:miter;stroke-miterlimit:4;stroke-opacity:1;stroke-dasharray:none;marker-end:url(#Arrow1Mend)"
       d="m 283.46708,899.61845 -12.86584,12.8659"
       id="path6433-5"
       inkscape:connector-curvature="0" />
    <path
       style="fill:none;stroke:#000000;stroke-width:1;stroke-linecap:butt;stroke-linejoin:miter;stroke-miterlimit:4;stroke-opacity:1;stroke-dasharray:none;marker-end:url(#Arrow1Mend)"
       d="m 287.44522,929.13768 -15.39919,-8.06136"
       id="path6433-5-2"
       inkscape:connector-curvature="0" />
    <path
       style="fill:none;stroke:#000000;stroke-width:1;stroke-linecap:butt;stroke-linejoin:miter;stroke-miterlimit:4;stroke-opacity:1;stroke-dasharray:none;marker-end:url(#Arrow1Mend)"
       d="m 245.94509,943.79308 14.94143,-19.37625"
       id="path6433-5-2-7"
       inkscape:connector-curvature="0" />
    <path
       style="fill:none;stroke:#000000;stroke-width:1;stroke-linecap:butt;stroke-linejoin:miter;stroke-miterlimit:4;stroke-opacity:1;stroke-dasharray:none;marker-end:url(#Arrow1Mend)"
       d="M 252.76639,887.03423 263.0842,910.7669"
       id="path6433-5-6"
       inkscape:connector-curvature="0" />
  </g>
  <g
     ns0:preamble="/home/andre/MEGA/Inkscape/preamble.ini"
     ns0:text="\\[\\vec{i}\\]"
     word-spacing="normal"
     letter-spacing="normal"
     font-size-adjust="none"
     font-stretch="normal"
     font-weight="normal"
     font-variant="normal"
     font-style="normal"
     stroke-miterlimit="10.433"
     xml:space="preserve"
     transform="matrix(1.8084478,0,0,-1.8084478,-690.06508,1461.8453)"
     id="content"
     style="font-style:normal;font-variant:normal;font-weight:normal;font-stretch:normal;letter-spacing:normal;word-spacing:normal;text-anchor:start;fill:#ff0000;stroke:#ff0000;stroke-linecap:butt;stroke-linejoin:miter;stroke-miterlimit:10.43299961;stroke-opacity:1;stroke-dasharray:none;stroke-dashoffset:0"><path
       id="path6877"
       d="m 397.37,715.32 -0.01,-0.02 -0.01,-0.01 -0.02,-0.01 -0.02,-0.02 -0.01,-0.01 -0.02,-0.02 -0.02,-0.02 -0.02,-0.01 -0.02,-0.02 -0.02,-0.02 -0.04,-0.04 -0.03,-0.04 -0.04,-0.04 -0.02,-0.02 -0.02,-0.02 -0.02,-0.02 -0.01,-0.02 -0.02,-0.02 -0.01,-0.02 -0.02,-0.02 -0.01,-0.02 -0.01,-0.02 -0.01,-0.02 -0.01,-0.02 -0.01,-0.02 -0.01,-0.02 0,-0.01 0,-0.02 0,-0.02 c 0,-0.1 0.1,-0.2 0.2,-0.2 0.09,0 0.13,0.07 0.18,0.13 0.12,0.15 0.35,0.43 0.79,0.65 0.07,0.04 0.17,0.09 0.17,0.21 0,0.09 -0.07,0.14 -0.14,0.19 -0.22,0.15 -0.33,0.33 -0.41,0.57 -0.02,0.09 -0.06,0.22 -0.2,0.22 -0.14,0 -0.2,-0.13 -0.2,-0.21 0,-0.05 0.08,-0.37 0.24,-0.58 h -3.35 c -0.17,0 -0.35,0 -0.35,-0.19 0,-0.2 0.18,-0.2 0.35,-0.2 z"
       inkscape:connector-curvature="0"
       style="fill:#ff0000;stroke-width:0;stroke:#ff0000" /><path
       id="path6879"
       d="m 396.4,713.33 0,0.02 0,0.02 -0.01,0.02 0,0.02 0,0.01 -0.01,0.02 0,0.02 -0.01,0.01 0,0.02 -0.01,0.01 -0.01,0.02 -0.01,0.01 -0.01,0.02 -0.01,0.01 -0.01,0.01 -0.01,0.02 -0.01,0.01 -0.02,0.01 -0.01,0.01 -0.01,0.01 -0.02,0.01 -0.01,0.01 -0.02,0.01 -0.02,0 -0.01,0.01 -0.02,0.01 -0.02,0 -0.02,0 -0.02,0.01 -0.02,0 -0.02,0 -0.02,0 c -0.27,0 -0.54,-0.26 -0.54,-0.53 0,-0.18 0.14,-0.35 0.38,-0.35 0.23,0 0.53,0.23 0.53,0.52 z"
       inkscape:connector-curvature="0"
       style="fill:#ff0000;stroke-width:0;stroke:#ff0000" /><path
       id="path6881"
       d="m 395.64,709.6 0.01,0.02 0.01,0.03 0.01,0.02 0.01,0.02 0.01,0.03 0.01,0.02 0,0.01 0.01,0.02 0.01,0.02 0.01,0.02 0,0.01 0.01,0.02 0,0.01 0.01,0.02 0.01,0.02 0.01,0.03 0.01,0.03 0,0.02 0.01,0.01 0.01,0.02 0,0.01 0.01,0.02 0,0.02 0.01,0.02 0.01,0.01 0,0.03 0.01,0.02 0.01,0.02 0.01,0.02 c 0.08,0.2 0.13,0.34 0.13,0.53 0,0.45 -0.32,0.82 -0.82,0.82 -0.93,0 -1.31,-1.44 -1.31,-1.53 0,-0.1 0.1,-0.1 0.12,-0.1 0.1,0 0.11,0.02 0.16,0.18 0.27,0.93 0.67,1.23 1,1.23 0.08,0 0.25,0 0.25,-0.32 0,-0.21 -0.07,-0.42 -0.11,-0.52 -0.08,-0.26 -0.52,-1.41 -0.68,-1.84 -0.1,-0.25 -0.23,-0.58 -0.23,-0.79 0,-0.47 0.34,-0.81 0.81,-0.81 0.94,0 1.31,1.44 1.31,1.53 0,0.1 -0.09,0.1 -0.12,0.1 -0.1,0 -0.1,-0.04 -0.15,-0.18 -0.18,-0.63 -0.51,-1.24 -1.02,-1.24 -0.17,0 -0.24,0.1 -0.24,0.33 0,0.25 0.06,0.39 0.29,0.99 z"
       inkscape:connector-curvature="0"
       style="fill:#ff0000;stroke-width:0;stroke:#ff0000" /></g>  <g
     id="g6968"
     transform="matrix(1.8084478,0,0,-1.8084478,-488.8865,1417.7144)"
     xml:space="preserve"
     stroke-miterlimit="10.433"
     font-style="normal"
     font-variant="normal"
     font-weight="normal"
     font-stretch="normal"
     font-size-adjust="none"
     letter-spacing="normal"
     word-spacing="normal"
     ns0:text="\\[\\vec{j}\\]"
     ns0:preamble="/home/andre/MEGA/Inkscape/preamble.ini"
     style="font-style:normal;font-variant:normal;font-weight:normal;font-stretch:normal;letter-spacing:normal;word-spacing:normal;text-anchor:start;fill:#ff0000;stroke:#ff0000;stroke-linecap:butt;stroke-linejoin:miter;stroke-miterlimit:10.43299961;stroke-opacity:1;stroke-dasharray:none;stroke-dashoffset:0"><path
       d="m 397.37,715.32 -0.01,-0.02 -0.01,-0.01 -0.02,-0.01 -0.02,-0.02 -0.01,-0.01 -0.02,-0.02 -0.02,-0.02 -0.02,-0.01 -0.02,-0.02 -0.02,-0.02 -0.04,-0.04 -0.03,-0.04 -0.04,-0.04 -0.02,-0.02 -0.02,-0.02 -0.02,-0.02 -0.01,-0.02 -0.02,-0.02 -0.01,-0.02 -0.02,-0.02 -0.01,-0.02 -0.01,-0.02 -0.01,-0.02 -0.01,-0.02 -0.01,-0.02 -0.01,-0.02 0,-0.01 0,-0.02 0,-0.02 c 0,-0.1 0.1,-0.2 0.2,-0.2 0.09,0 0.13,0.07 0.18,0.13 0.12,0.15 0.35,0.43 0.79,0.65 0.07,0.04 0.17,0.09 0.17,0.21 0,0.09 -0.07,0.14 -0.14,0.19 -0.22,0.15 -0.33,0.33 -0.41,0.57 -0.02,0.09 -0.06,0.22 -0.2,0.22 -0.14,0 -0.2,-0.13 -0.2,-0.21 0,-0.05 0.08,-0.37 0.24,-0.58 h -3.35 c -0.17,0 -0.35,0 -0.35,-0.19 0,-0.2 0.18,-0.2 0.35,-0.2 z"
       id="path6970"
       inkscape:connector-curvature="0"
       style="fill:#ff0000;stroke-width:0;stroke:#ff0000" /><path
       d="m 396.9,713.33 0,0.02 0,0.02 0,0.02 -0.01,0.01 0,0.02 0,0.02 -0.01,0.01 0,0.02 -0.01,0.01 -0.01,0.02 -0.01,0.02 -0.01,0.01 -0.01,0.01 -0.01,0.02 -0.01,0.01 -0.01,0.01 -0.01,0.02 -0.01,0.01 -0.02,0.01 -0.01,0.01 -0.02,0.01 -0.01,0.01 -0.02,0 -0.02,0.01 -0.01,0.01 -0.02,0 -0.02,0.01 -0.02,0 -0.02,0.01 -0.02,0 -0.02,0 -0.03,0 c -0.23,0 -0.53,-0.23 -0.53,-0.53 0,-0.19 0.15,-0.35 0.37,-0.35 0.27,0 0.54,0.26 0.54,0.52 z"
       id="path6972"
       inkscape:connector-curvature="0"
       style="fill:#ff0000;stroke-width:0;stroke:#ff0000" /><path
       d="m 394.9,706.63 -0.02,-0.07 -0.02,-0.07 -0.02,-0.07 -0.02,-0.07 -0.03,-0.06 -0.02,-0.06 -0.03,-0.07 -0.03,-0.06 -0.03,-0.06 -0.03,-0.05 -0.04,-0.06 -0.03,-0.05 -0.04,-0.05 -0.04,-0.05 -0.03,-0.05 -0.04,-0.05 -0.04,-0.04 -0.04,-0.04 -0.05,-0.04 -0.04,-0.03 -0.05,-0.04 -0.04,-0.03 -0.05,-0.03 -0.04,-0.02 -0.05,-0.03 -0.05,-0.02 -0.05,-0.01 -0.05,-0.02 -0.05,-0.01 -0.05,-0.01 -0.05,0 -0.05,0 c -0.06,0 -0.21,0 -0.39,0.09 0.3,0.07 0.45,0.32 0.45,0.52 0,0.16 -0.11,0.35 -0.38,0.35 -0.25,0 -0.54,-0.21 -0.54,-0.57 0,-0.39 0.4,-0.61 0.88,-0.61 0.69,0 1.62,0.52 1.87,1.51 l 0.91,3.63 c 0.05,0.2 0.05,0.34 0.05,0.37 0,0.57 -0.42,0.92 -0.91,0.92 -1.02,0 -1.58,-1.44 -1.58,-1.53 0,-0.1 0.1,-0.1 0.11,-0.1 0.09,0 0.1,0.01 0.18,0.2 0.25,0.6 0.71,1.21 1.26,1.21 0.14,0 0.32,-0.04 0.32,-0.46 0,-0.23 -0.03,-0.34 -0.07,-0.51 z"
       id="path6974"
       inkscape:connector-curvature="0"
       style="fill:#ff0000;stroke-width:0;stroke:#ff0000" /></g>  <g
     style="font-style:normal;font-variant:normal;font-weight:normal;font-stretch:normal;letter-spacing:normal;word-spacing:normal;text-anchor:start;fill:#ff0000;stroke:#ff0000;stroke-linecap:butt;stroke-linejoin:miter;stroke-miterlimit:10.43299961;stroke-opacity:1;stroke-dasharray:none;stroke-dashoffset:0"
     ns0:preamble="/home/andre/MEGA/Inkscape/preamble.ini"
     ns0:text="\\[\\vec{k}\\]"
     word-spacing="normal"
     letter-spacing="normal"
     font-size-adjust="none"
     font-stretch="normal"
     font-weight="normal"
     font-variant="normal"
     font-style="normal"
     stroke-miterlimit="10.433"
     xml:space="preserve"
     transform="matrix(1.8084478,0,0,-1.8084478,-633.25377,1300.1337)"
     id="g7069"><path
       id="path7071"
       d="m 397.37,715.66 -0.01,-0.01 -0.01,-0.01 -0.02,-0.02 -0.02,-0.01 -0.01,-0.02 -0.02,-0.01 -0.02,-0.02 -0.02,-0.02 -0.02,-0.01 -0.02,-0.02 -0.04,-0.04 -0.03,-0.04 -0.04,-0.04 -0.02,-0.02 -0.02,-0.02 -0.02,-0.02 -0.01,-0.02 -0.02,-0.02 -0.01,-0.02 -0.02,-0.02 -0.01,-0.02 -0.01,-0.02 -0.01,-0.02 -0.01,-0.02 -0.01,-0.02 -0.01,-0.02 0,-0.02 0,-0.01 0,-0.02 c 0,-0.1 0.1,-0.2 0.2,-0.2 0.09,0 0.13,0.07 0.18,0.13 0.12,0.15 0.35,0.43 0.79,0.65 0.07,0.04 0.17,0.08 0.17,0.2 0,0.1 -0.07,0.15 -0.14,0.2 -0.22,0.15 -0.33,0.33 -0.41,0.57 -0.02,0.09 -0.06,0.22 -0.2,0.22 -0.14,0 -0.2,-0.13 -0.2,-0.21 0,-0.05 0.08,-0.37 0.24,-0.58 h -3.35 c -0.17,0 -0.35,0 -0.35,-0.2 0,-0.2 0.18,-0.2 0.35,-0.2 z"
       inkscape:connector-curvature="0"
       style="fill:#ff0000;stroke-width:0;stroke:#ff0000" /><path
       id="path7073"
       d="m 395.39,713.91 0,0 0,0 0,0 0,0 0,0.01 0,0 0,0 0,0.01 0,0 0,0.01 0,0 0,0 0,0.01 -0.01,0 0,0.01 0,0 0,0.01 -0.01,0 0,0.01 0,0 -0.01,0.01 0,0 0,0 -0.01,0 0,0.01 0,0 0,0 -0.01,0 0,0 0,0.01 -0.01,0 0,0 -0.01,0 0,0 0,0 -0.01,0 0,0 -0.01,0.01 0,0 -0.01,0 0,0 -0.01,0 0,0 -0.01,0 -0.01,0 c -0.22,0 -0.95,-0.08 -1.21,-0.1 -0.08,-0.01 -0.19,-0.02 -0.19,-0.2 0,-0.12 0.09,-0.12 0.24,-0.12 0.48,0 0.5,-0.07 0.5,-0.17 l -0.03,-0.2 -1.45,-5.72 c -0.04,-0.14 -0.04,-0.16 -0.04,-0.22 0,-0.22 0.2,-0.27 0.29,-0.27 0.13,0 0.28,0.08 0.34,0.2 0.05,0.09 0.5,1.93 0.56,2.18 0.34,-0.03 1.15,-0.19 1.15,-0.85 0,-0.06 0,-0.1 -0.03,-0.2 -0.02,-0.12 -0.04,-0.24 -0.04,-0.35 0,-0.59 0.4,-0.98 0.92,-0.98 0.3,0 0.57,0.15 0.78,0.52 0.25,0.44 0.36,0.99 0.36,1.01 0,0.1 -0.09,0.1 -0.12,0.1 -0.1,0 -0.11,-0.05 -0.14,-0.18 -0.19,-0.73 -0.42,-1.24 -0.86,-1.24 -0.19,0 -0.32,0.11 -0.32,0.47 0,0.17 0.04,0.4 0.08,0.56 0.04,0.17 0.04,0.21 0.04,0.31 0,0.64 -0.63,0.93 -1.47,1.04 0.31,0.18 0.62,0.49 0.85,0.73 0.48,0.53 0.94,0.96 1.43,0.96 0.06,0 0.06,0 0.08,-0.01 0.13,-0.02 0.13,-0.02 0.21,-0.08 0.02,-0.01 0.02,-0.02 0.04,-0.04 -0.47,-0.03 -0.56,-0.42 -0.56,-0.54 0,-0.16 0.11,-0.35 0.38,-0.35 0.25,0 0.54,0.22 0.54,0.61 0,0.3 -0.23,0.63 -0.67,0.63 -0.28,0 -0.74,-0.08 -1.46,-0.88 -0.34,-0.38 -0.72,-0.77 -1.1,-0.92 z"
       inkscape:connector-curvature="0"
       style="fill:#ff0000;stroke-width:0;stroke:#ff0000" /></g>  <g
     style="font-style:normal;font-variant:normal;font-weight:normal;font-stretch:normal;letter-spacing:normal;word-spacing:normal;text-anchor:start;fill:none;stroke:#000000;stroke-linecap:butt;stroke-linejoin:miter;stroke-miterlimit:10.43299961;stroke-opacity:1;stroke-dasharray:none;stroke-dashoffset:0"
     ns0:preamble="/home/andre/MEGA/Inkscape/preamble.ini"
     ns0:text="\\[O\\]"
     word-spacing="normal"
     letter-spacing="normal"
     font-size-adjust="none"
     font-stretch="normal"
     font-weight="normal"
     font-variant="normal"
     font-style="normal"
     stroke-miterlimit="10.433"
     xml:space="preserve"
     transform="matrix(1.8084478,0,0,-1.8084478,-663.16665,1400.3955)"
     id="g8353"><path
       id="path8355"
       d="m 398.71,711.46 0,0.14 -0.01,0.15 -0.02,0.14 -0.02,0.14 -0.02,0.13 -0.04,0.14 -0.03,0.12 -0.05,0.13 -0.04,0.12 -0.06,0.11 -0.06,0.12 -0.06,0.1 -0.07,0.11 -0.07,0.1 -0.08,0.09 -0.08,0.09 -0.09,0.09 -0.09,0.08 -0.09,0.07 -0.1,0.07 -0.1,0.07 -0.11,0.06 -0.11,0.06 -0.11,0.05 -0.12,0.04 -0.12,0.04 -0.12,0.03 -0.13,0.03 -0.13,0.02 -0.13,0.02 -0.14,0 -0.14,0.01 -0.05,-0.25 c 0.81,0 1.71,-0.56 1.71,-2.04 0,-0.71 -0.27,-2.26 -1.26,-3.48 -0.47,-0.61 -1.29,-1.2 -2.13,-1.2 h 0 c -0.98,0 -1.68,0.81 -1.68,2.12 0,0.44 0.14,1.89 0.91,3.05 0.69,1.03 1.66,1.55 2.45,1.55 l 0.05,0.25 c -2.14,0 -4.33,-2.26 -4.33,-4.57 0,-1.65 1.11,-2.65 2.54,-2.65 2.11,0 4.33,2.17 4.33,4.55 z"
       inkscape:connector-curvature="0"
       style="fill:#000000;stroke-width:0" /></g>  <g
     id="g3142"
     transform="matrix(1.8084478,0,0,-1.8084478,-610.42745,1374.5708)"
     xml:space="preserve"
     stroke-miterlimit="10.433"
     font-style="normal"
     font-variant="normal"
     font-weight="normal"
     font-stretch="normal"
     font-size-adjust="none"
     letter-spacing="normal"
     word-spacing="normal"
     ns0:text="\\[\\vec{r}\\]"
     ns0:preamble="/home/andre/MEGA/Inkscape/preamble.ini"
     style="font-style:normal;font-variant:normal;font-weight:normal;font-stretch:normal;letter-spacing:normal;word-spacing:normal;text-anchor:start;fill:none;stroke:#000000;stroke-linecap:butt;stroke-linejoin:miter;stroke-miterlimit:10.43299961;stroke-dasharray:none;stroke-dashoffset:0;stroke-opacity:1"><path
       style="fill:#000000;stroke-width:0"
       inkscape:connector-curvature="0"
       d="m 397.93,713.04 -0.02,-0.02 -0.01,-0.01 -0.02,-0.01 -0.01,-0.02 -0.02,-0.01 -0.02,-0.02 -0.02,-0.02 -0.01,-0.01 -0.02,-0.02 -0.02,-0.02 -0.04,-0.04 -0.04,-0.04 -0.04,-0.04 -0.02,-0.02 -0.02,-0.02 -0.01,-0.02 -0.02,-0.02 -0.02,-0.02 -0.01,-0.02 -0.01,-0.02 -0.02,-0.02 -0.01,-0.02 -0.01,-0.02 -0.01,-0.02 -0.01,-0.02 v -0.02 l -0.01,-0.02 v -0.01 -0.02 c 0,-0.1 0.1,-0.2 0.2,-0.2 0.09,0 0.14,0.07 0.19,0.13 0.12,0.15 0.35,0.43 0.78,0.65 0.07,0.04 0.17,0.08 0.17,0.2 0,0.1 -0.07,0.15 -0.14,0.2 -0.22,0.15 -0.33,0.33 -0.4,0.57 -0.03,0.09 -0.06,0.22 -0.2,0.22 -0.14,0 -0.2,-0.13 -0.2,-0.21 0,-0.05 0.08,-0.37 0.24,-0.58 h -3.36 c -0.17,0 -0.35,0 -0.35,-0.2 0,-0.19 0.18,-0.19 0.35,-0.19 z"
       id="path3144" /><path
       style="fill:#000000;stroke-width:0"
       inkscape:connector-curvature="0"
       d="m 393.78,707.71 v -0.01 l -0.01,-0.02 v -0.01 -0.02 l -0.01,-0.03 -0.01,-0.03 -0.01,-0.03 v -0.04 l -0.01,-0.03 -0.01,-0.03 v -0.01 -0.02 l -0.01,-0.01 v -0.02 -0.01 l -0.01,-0.01 v -0.02 -0.01 -0.01 l -0.01,-0.01 v -0.01 -0.01 -0.01 0 -0.01 -0.01 c 0,-0.18 0.14,-0.26 0.29,-0.26 0.12,0 0.3,0.07 0.37,0.27 0.01,0.04 0.35,1.39 0.39,1.57 0.08,0.33 0.26,1.03 0.32,1.3 0.04,0.12 0.32,0.59 0.56,0.81 0.08,0.07 0.37,0.33 0.8,0.33 0.25,0 0.4,-0.12 0.41,-0.12 -0.3,-0.05 -0.51,-0.29 -0.51,-0.55 0,-0.16 0.1,-0.35 0.37,-0.35 0.27,0 0.55,0.23 0.55,0.59 0,0.35 -0.32,0.65 -0.82,0.65 -0.65,0 -1.09,-0.49 -1.28,-0.77 -0.08,0.45 -0.44,0.77 -0.9,0.77 -0.46,0 -0.65,-0.39 -0.74,-0.57 -0.18,-0.34 -0.31,-0.93 -0.31,-0.96 0,-0.1 0.1,-0.1 0.12,-0.1 0.1,0 0.11,0.01 0.17,0.22 0.17,0.71 0.37,1.19 0.73,1.19 0.17,0 0.31,-0.08 0.31,-0.46 0,-0.21 -0.04,-0.32 -0.16,-0.83 z"
       id="path3146" /></g>  <g
     style="font-style:normal;font-variant:normal;font-weight:normal;font-stretch:normal;letter-spacing:normal;word-spacing:normal;text-anchor:start;fill:none;stroke:#000000;stroke-width:0.73650789;stroke-linecap:butt;stroke-linejoin:miter;stroke-miterlimit:10.43299961;stroke-dasharray:none;stroke-dashoffset:0;stroke-opacity:1"
     ns0:preamble="/home/andre/MEGA/Inkscape/preamble.ini"
     ns0:text="\\[\\vec{f}_1\\]"
     word-spacing="normal"
     letter-spacing="normal"
     font-size-adjust="none"
     font-stretch="normal"
     font-weight="normal"
     font-variant="normal"
     font-style="normal"
     stroke-miterlimit="10.433"
     xml:space="preserve"
     transform="matrix(1.5769309,0,0,-1.5769309,-492.17082,1224.5543)"
     id="g4051"><path
       id="path4053"
       d="m 397.34,715.66 -0.02,-0.01 -0.01,-0.01 -0.02,-0.02 -0.01,-0.01 -0.02,-0.02 -0.02,-0.01 -0.02,-0.02 -0.02,-0.02 -0.01,-0.01 -0.02,-0.02 -0.04,-0.04 -0.04,-0.04 -0.04,-0.04 -0.02,-0.02 -0.02,-0.02 -0.01,-0.02 -0.02,-0.02 -0.02,-0.02 -0.01,-0.02 -0.02,-0.02 -0.01,-0.02 -0.01,-0.02 -0.01,-0.02 -0.01,-0.02 -0.01,-0.02 v -0.02 l -0.01,-0.02 v -0.01 -0.02 c 0,-0.1 0.1,-0.2 0.2,-0.2 0.09,0 0.14,0.07 0.19,0.13 0.12,0.15 0.34,0.43 0.78,0.65 0.07,0.04 0.17,0.08 0.17,0.2 0,0.1 -0.07,0.15 -0.14,0.2 -0.22,0.15 -0.33,0.33 -0.41,0.57 -0.02,0.09 -0.06,0.22 -0.2,0.22 -0.13,0 -0.19,-0.13 -0.19,-0.21 0,-0.05 0.08,-0.37 0.24,-0.58 h -3.36 c -0.17,0 -0.35,0 -0.35,-0.2 0,-0.2 0.18,-0.2 0.35,-0.2 z"
       inkscape:connector-curvature="0"
       style="fill:#000000;stroke-width:0" /><path
       id="path4055"
       d="m 394.27,711.1 h 0.85 c 0.2,0 0.3,0 0.3,0.2 0,0.11 -0.1,0.11 -0.27,0.11 h -0.82 l 0.2,1.13 c 0.04,0.21 0.18,0.91 0.24,1.03 0.09,0.19 0.26,0.34 0.47,0.34 0.04,0 0.3,0 0.49,-0.18 -0.44,-0.04 -0.54,-0.39 -0.54,-0.53 0,-0.23 0.18,-0.35 0.37,-0.35 0.26,0 0.55,0.22 0.55,0.59 0,0.46 -0.46,0.69 -0.87,0.69 -0.34,0 -0.97,-0.18 -1.26,-1.16 -0.06,-0.21 -0.09,-0.31 -0.33,-1.56 h -0.69 c -0.19,0 -0.3,0 -0.3,-0.19 0,-0.12 0.09,-0.12 0.28,-0.12 h 0.66 l -0.75,-3.93 c -0.18,-0.96 -0.35,-1.86 -0.86,-1.86 -0.04,0 -0.29,0 -0.48,0.18 0.46,0.03 0.55,0.38 0.55,0.53 0,0.23 -0.18,0.35 -0.37,0.35 -0.26,0 -0.55,-0.22 -0.55,-0.6 0,-0.44 0.44,-0.68 0.85,-0.68 0.54,0 0.94,0.58 1.12,0.96 0.32,0.63 0.55,1.83 0.56,1.9 z"
       inkscape:connector-curvature="0"
       style="fill:#000000;stroke-width:0" /><path
       id="path4057"
       d="m 397.83,710.05 v 0.01 l -0.01,0.01 v 0.01 0.01 0 0.01 0.01 0.01 0 0.01 0.01 0 0.01 0 0.01 0 0.01 0 0.01 l -0.01,0.01 v 0.01 0 l -0.01,0.01 v 0.01 h -0.01 v 0.01 h -0.01 v 0 l -0.01,0.01 h -0.01 -0.01 -0.01 v 0 h -0.01 v 0 l -0.01,0.01 h -0.01 v 0 h -0.01 -0.01 v 0 h -0.01 -0.01 v 0 h -0.01 -0.01 -0.01 -0.01 v 0 h -0.01 c -0.45,-0.44 -1.08,-0.45 -1.37,-0.45 v -0.25 c 0.17,0 0.63,0 1.01,0.2 v -3.55 c 0,-0.23 0,-0.32 -0.69,-0.32 h -0.27 v -0.25 c 0.12,0.01 0.98,0.03 1.24,0.03 0.22,0 1.09,-0.02 1.25,-0.03 v 0.25 h -0.27 c -0.69,0 -0.69,0.09 -0.69,0.32 z"
       inkscape:connector-curvature="0"
       style="fill:#000000;stroke-width:0" /></g>  <g
     id="g4216"
     transform="matrix(1.5769309,0,0,-1.5769309,-431.01515,1220.5716)"
     xml:space="preserve"
     stroke-miterlimit="10.433"
     font-style="normal"
     font-variant="normal"
     font-weight="normal"
     font-stretch="normal"
     font-size-adjust="none"
     letter-spacing="normal"
     word-spacing="normal"
     ns0:text="\\[\\vec{f}_2\\]"
     ns0:preamble="/home/andre/MEGA/Inkscape/preamble.ini"
     style="font-style:normal;font-variant:normal;font-weight:normal;font-stretch:normal;letter-spacing:normal;word-spacing:normal;text-anchor:start;fill:none;fill-opacity:1;fill-rule:evenodd;stroke:#000000;stroke-width:0.73650789;stroke-linecap:butt;stroke-linejoin:miter;stroke-miterlimit:10.43299961;stroke-dasharray:none;stroke-dashoffset:0;stroke-opacity:1"><path
       d="m 397.34,715.66 -0.02,-0.01 -0.01,-0.01 -0.02,-0.02 -0.01,-0.01 -0.02,-0.02 -0.02,-0.01 -0.02,-0.02 -0.02,-0.02 -0.01,-0.01 -0.02,-0.02 -0.04,-0.04 -0.04,-0.04 -0.04,-0.04 -0.02,-0.02 -0.02,-0.02 -0.01,-0.02 -0.02,-0.02 -0.02,-0.02 -0.01,-0.02 -0.02,-0.02 -0.01,-0.02 -0.01,-0.02 -0.01,-0.02 -0.01,-0.02 -0.01,-0.02 v -0.02 l -0.01,-0.02 v -0.01 -0.02 c 0,-0.1 0.1,-0.2 0.2,-0.2 0.09,0 0.14,0.07 0.19,0.13 0.12,0.15 0.34,0.43 0.78,0.65 0.07,0.04 0.17,0.08 0.17,0.2 0,0.1 -0.07,0.15 -0.14,0.2 -0.22,0.15 -0.33,0.33 -0.41,0.57 -0.02,0.09 -0.06,0.22 -0.2,0.22 -0.13,0 -0.19,-0.13 -0.19,-0.21 0,-0.05 0.08,-0.37 0.24,-0.58 h -3.36 c -0.17,0 -0.35,0 -0.35,-0.2 0,-0.2 0.18,-0.2 0.35,-0.2 z"
       id="path4218"
       inkscape:connector-curvature="0"
       style="fill:#000000;stroke-width:0" /><path
       d="m 394.27,711.1 h 0.85 c 0.2,0 0.3,0 0.3,0.2 0,0.11 -0.1,0.11 -0.27,0.11 h -0.82 l 0.2,1.13 c 0.04,0.21 0.18,0.91 0.24,1.03 0.09,0.19 0.26,0.34 0.47,0.34 0.04,0 0.3,0 0.49,-0.18 -0.44,-0.04 -0.54,-0.39 -0.54,-0.53 0,-0.23 0.18,-0.35 0.37,-0.35 0.26,0 0.55,0.22 0.55,0.59 0,0.46 -0.46,0.69 -0.87,0.69 -0.34,0 -0.97,-0.18 -1.26,-1.16 -0.06,-0.21 -0.09,-0.31 -0.33,-1.56 h -0.69 c -0.19,0 -0.3,0 -0.3,-0.19 0,-0.12 0.09,-0.12 0.28,-0.12 h 0.66 l -0.75,-3.93 c -0.18,-0.96 -0.35,-1.86 -0.86,-1.86 -0.04,0 -0.29,0 -0.48,0.18 0.46,0.03 0.55,0.38 0.55,0.53 0,0.23 -0.18,0.35 -0.37,0.35 -0.26,0 -0.55,-0.22 -0.55,-0.6 0,-0.44 0.44,-0.68 0.85,-0.68 0.54,0 0.94,0.58 1.12,0.96 0.32,0.63 0.55,1.83 0.56,1.9 z"
       id="path4220"
       inkscape:connector-curvature="0"
       style="fill:#000000;stroke-width:0" /><path
       d="m 399.01,706.9 h -0.24 c -0.02,-0.16 -0.09,-0.57 -0.18,-0.64 -0.05,-0.04 -0.59,-0.04 -0.69,-0.04 h -1.28 c 0.73,0.65 0.98,0.84 1.39,1.17 0.52,0.41 1,0.84 1,1.5 0,0.84 -0.74,1.36 -1.63,1.36 -0.86,0 -1.45,-0.61 -1.45,-1.25 0,-0.35 0.3,-0.39 0.37,-0.39 0.17,0 0.37,0.12 0.37,0.37 0,0.13 -0.05,0.37 -0.41,0.37 0.21,0.49 0.69,0.65 1.01,0.65 0.7,0 1.06,-0.54 1.06,-1.11 0,-0.6 -0.43,-1.08 -0.65,-1.33 L 396,705.9 c -0.07,-0.06 -0.07,-0.07 -0.07,-0.27 h 2.87 z"
       id="path4222"
       inkscape:connector-curvature="0"
       style="fill:#000000;stroke-width:0" /></g>  <g
     style="font-style:normal;font-variant:normal;font-weight:normal;font-stretch:normal;letter-spacing:normal;word-spacing:normal;text-anchor:start;fill:none;stroke:#000000;stroke-width:0.73650789;stroke-linecap:butt;stroke-linejoin:miter;stroke-miterlimit:10.43299961;stroke-dasharray:none;stroke-dashoffset:0;stroke-opacity:1"
     ns0:preamble="/home/andre/MEGA/Inkscape/preamble.ini"
     ns0:text="\\[\\vec{f}_i\\]"
     word-spacing="normal"
     letter-spacing="normal"
     font-size-adjust="none"
     font-stretch="normal"
     font-weight="normal"
     font-variant="normal"
     font-style="normal"
     stroke-miterlimit="10.433"
     xml:space="preserve"
     transform="matrix(1.5769309,0,0,-1.5769309,-444.07303,1167.9773)"
     id="g4375"><path
       id="path4377"
       d="m 397.91,715.66 -0.01,-0.01 -0.02,-0.01 -0.01,-0.02 -0.02,-0.01 -0.02,-0.02 -0.01,-0.01 -0.02,-0.02 -0.02,-0.02 -0.02,-0.01 -0.02,-0.02 -0.04,-0.04 -0.04,-0.04 -0.03,-0.04 -0.02,-0.02 -0.02,-0.02 -0.02,-0.02 -0.01,-0.02 -0.02,-0.02 -0.02,-0.02 -0.01,-0.02 -0.01,-0.02 -0.01,-0.02 -0.01,-0.02 -0.01,-0.02 -0.01,-0.02 -0.01,-0.02 v -0.02 l -0.01,-0.01 v -0.02 c 0,-0.1 0.1,-0.2 0.2,-0.2 0.09,0 0.14,0.07 0.19,0.13 0.12,0.15 0.35,0.43 0.79,0.65 0.07,0.04 0.17,0.08 0.17,0.2 0,0.1 -0.07,0.15 -0.14,0.2 -0.22,0.15 -0.33,0.33 -0.41,0.57 -0.02,0.09 -0.06,0.22 -0.2,0.22 -0.14,0 -0.2,-0.13 -0.2,-0.21 0,-0.05 0.08,-0.37 0.24,-0.58 h -3.35 c -0.17,0 -0.35,0 -0.35,-0.2 0,-0.2 0.18,-0.2 0.35,-0.2 z"
       inkscape:connector-curvature="0"
       style="fill:#000000;stroke-width:0" /><path
       id="path4379"
       d="m 394.84,711.1 h 0.86 c 0.2,0 0.3,0 0.3,0.2 0,0.11 -0.1,0.11 -0.27,0.11 h -0.83 l 0.21,1.13 c 0.04,0.21 0.18,0.91 0.24,1.03 0.09,0.19 0.26,0.34 0.47,0.34 0.04,0 0.29,0 0.48,-0.18 -0.43,-0.04 -0.53,-0.39 -0.53,-0.53 0,-0.23 0.18,-0.35 0.37,-0.35 0.25,0 0.54,0.22 0.54,0.59 0,0.46 -0.46,0.69 -0.86,0.69 -0.34,0 -0.97,-0.18 -1.27,-1.16 -0.06,-0.21 -0.09,-0.31 -0.33,-1.56 h -0.68 c -0.19,0 -0.3,0 -0.3,-0.19 0,-0.12 0.09,-0.12 0.28,-0.12 h 0.65 l -0.74,-3.93 c -0.18,-0.96 -0.35,-1.86 -0.87,-1.86 -0.04,0 -0.29,0 -0.48,0.18 0.46,0.03 0.55,0.38 0.55,0.53 0,0.23 -0.18,0.35 -0.37,0.35 -0.25,0 -0.54,-0.22 -0.54,-0.6 0,-0.44 0.43,-0.68 0.84,-0.68 0.55,0 0.95,0.58 1.13,0.96 0.32,0.63 0.54,1.83 0.55,1.9 z"
       inkscape:connector-curvature="0"
       style="fill:#000000;stroke-width:0" /><path
       id="path4381"
       d="m 398.32,709.98 v 0.01 0.01 0.01 0.01 0.01 0.01 l -0.01,0.01 v 0.02 l -0.01,0.01 v 0.01 l -0.01,0.01 v 0.01 l -0.01,0.01 -0.01,0.01 v 0.01 l -0.01,0.01 -0.01,0.01 -0.01,0.01 -0.01,0.01 -0.01,0.01 h -0.01 l -0.01,0.01 -0.02,0.01 -0.01,0.01 h -0.01 l -0.02,0.01 h -0.01 -0.02 l -0.01,0.01 h -0.02 -0.02 -0.01 c -0.19,0 -0.39,-0.18 -0.39,-0.38 0,-0.12 0.09,-0.27 0.27,-0.27 0.21,0 0.39,0.2 0.39,0.39 z"
       inkscape:connector-curvature="0"
       style="fill:#000000;stroke-width:0" /><path
       id="path4383"
       d="m 396.9,706.45 v -0.02 l -0.01,-0.02 -0.01,-0.03 v -0.02 l -0.01,-0.02 v -0.01 l -0.01,-0.02 v -0.02 l -0.01,-0.02 v -0.02 -0.01 -0.01 l -0.01,-0.01 v -0.01 -0.01 -0.02 -0.01 -0.01 -0.01 c 0,-0.32 0.28,-0.59 0.66,-0.59 0.7,0 1.01,0.96 1.01,1.06 0,0.1 -0.09,0.1 -0.12,0.1 -0.09,0 -0.1,-0.05 -0.13,-0.12 -0.16,-0.56 -0.46,-0.84 -0.74,-0.84 -0.14,0 -0.17,0.09 -0.17,0.24 0,0.16 0.05,0.29 0.11,0.45 0.07,0.18 0.15,0.37 0.22,0.55 0.07,0.17 0.32,0.8 0.34,0.88 0.03,0.07 0.05,0.16 0.05,0.23 0,0.32 -0.28,0.59 -0.67,0.59 -0.68,0 -1.01,-0.95 -1.01,-1.07 0,-0.09 0.1,-0.09 0.12,-0.09 0.1,0 0.11,0.04 0.13,0.11 0.18,0.6 0.49,0.85 0.74,0.85 0.12,0 0.18,-0.05 0.18,-0.24 0,-0.16 -0.04,-0.27 -0.22,-0.7 z"
       inkscape:connector-curvature="0"
       style="fill:#000000;stroke-width:0" /></g>  <g
     id="g4546"
     transform="matrix(1.5769309,0,0,-1.5769309,-484.6399,1157.8662)"
     xml:space="preserve"
     stroke-miterlimit="10.433"
     font-style="normal"
     font-variant="normal"
     font-weight="normal"
     font-stretch="normal"
     font-size-adjust="none"
     letter-spacing="normal"
     word-spacing="normal"
     ns0:text="\\[\\vec{f}_n\\]"
     ns0:preamble="/home/andre/MEGA/Inkscape/preamble.ini"
     style="font-style:normal;font-variant:normal;font-weight:normal;font-stretch:normal;letter-spacing:normal;word-spacing:normal;text-anchor:start;fill:none;stroke:#000000;stroke-width:0.73650789;stroke-linecap:butt;stroke-linejoin:miter;stroke-miterlimit:10.43299961;stroke-dasharray:none;stroke-dashoffset:0;stroke-opacity:1"><path
       style="fill:#000000;stroke-width:0"
       inkscape:connector-curvature="0"
       d="m 396.86,715.66 -0.01,-0.01 -0.02,-0.01 -0.01,-0.02 -0.02,-0.01 -0.02,-0.02 -0.02,-0.01 -0.01,-0.02 -0.02,-0.02 -0.02,-0.01 -0.02,-0.02 -0.04,-0.04 -0.04,-0.04 -0.04,-0.04 -0.02,-0.02 -0.01,-0.02 -0.02,-0.02 -0.02,-0.02 -0.01,-0.02 -0.02,-0.02 -0.01,-0.02 -0.02,-0.02 -0.01,-0.02 -0.01,-0.02 -0.01,-0.02 v -0.02 l -0.01,-0.02 -0.01,-0.02 v -0.01 -0.02 c 0,-0.1 0.1,-0.2 0.2,-0.2 0.09,0 0.14,0.07 0.19,0.13 0.12,0.15 0.35,0.43 0.79,0.65 0.07,0.04 0.16,0.08 0.16,0.2 0,0.1 -0.06,0.15 -0.13,0.2 -0.22,0.15 -0.33,0.33 -0.41,0.57 -0.02,0.09 -0.06,0.22 -0.2,0.22 -0.14,0 -0.2,-0.13 -0.2,-0.21 0,-0.05 0.08,-0.37 0.24,-0.58 h -3.36 c -0.16,0 -0.34,0 -0.34,-0.2 0,-0.2 0.18,-0.2 0.34,-0.2 z"
       id="path4548" /><path
       style="fill:#000000;stroke-width:0"
       inkscape:connector-curvature="0"
       d="m 393.79,711.1 h 0.85 c 0.2,0 0.3,0 0.3,0.2 0,0.11 -0.1,0.11 -0.27,0.11 h -0.82 l 0.21,1.13 c 0.04,0.21 0.18,0.91 0.24,1.03 0.09,0.19 0.25,0.34 0.46,0.34 0.04,0 0.3,0 0.49,-0.18 -0.44,-0.04 -0.54,-0.39 -0.54,-0.53 0,-0.23 0.18,-0.35 0.37,-0.35 0.26,0 0.55,0.22 0.55,0.59 0,0.46 -0.46,0.69 -0.87,0.69 -0.34,0 -0.96,-0.18 -1.26,-1.16 -0.06,-0.21 -0.09,-0.31 -0.33,-1.56 h -0.69 c -0.18,0 -0.29,0 -0.29,-0.19 0,-0.12 0.09,-0.12 0.27,-0.12 h 0.66 l -0.74,-3.93 c -0.18,-0.96 -0.35,-1.86 -0.87,-1.86 -0.04,0 -0.29,0 -0.48,0.18 0.46,0.03 0.55,0.38 0.55,0.53 0,0.23 -0.18,0.35 -0.37,0.35 -0.26,0 -0.55,-0.22 -0.55,-0.6 0,-0.44 0.44,-0.68 0.85,-0.68 0.55,0 0.94,0.58 1.12,0.96 0.32,0.63 0.55,1.83 0.56,1.9 z"
       id="path4550" /><path
       style="fill:#000000;stroke-width:0"
       inkscape:connector-curvature="0"
       d="m 395.86,706.07 v -0.01 -0.01 -0.01 l -0.01,-0.01 v -0.01 -0.01 -0.01 l -0.01,-0.01 v -0.02 l -0.01,-0.03 -0.01,-0.02 v -0.02 -0.01 l -0.01,-0.01 v -0.01 -0.01 -0.01 -0.01 l -0.01,-0.01 v -0.01 0 -0.01 -0.01 0 -0.01 0 0 0 0 -0.01 c 0,-0.15 0.12,-0.22 0.23,-0.22 0.13,0 0.24,0.09 0.27,0.15 0.04,0.07 0.09,0.29 0.13,0.44 0.03,0.13 0.11,0.45 0.15,0.62 0.04,0.15 0.09,0.31 0.12,0.47 0.08,0.28 0.09,0.34 0.29,0.62 0.2,0.28 0.53,0.64 1.05,0.64 0.4,0 0.41,-0.35 0.41,-0.48 0,-0.42 -0.3,-1.19 -0.41,-1.49 -0.08,-0.19 -0.11,-0.25 -0.11,-0.37 0,-0.37 0.31,-0.6 0.67,-0.6 0.69,0 1,0.96 1,1.06 0,0.1 -0.09,0.1 -0.11,0.1 -0.1,0 -0.11,-0.05 -0.14,-0.12 -0.16,-0.56 -0.46,-0.84 -0.73,-0.84 -0.15,0 -0.18,0.09 -0.18,0.24 0,0.16 0.04,0.25 0.16,0.56 0.08,0.22 0.37,0.96 0.37,1.35 0,0.67 -0.54,0.79 -0.9,0.79 -0.58,0 -0.97,-0.36 -1.18,-0.63 -0.05,0.47 -0.46,0.63 -0.75,0.63 -0.3,0 -0.46,-0.22 -0.55,-0.38 -0.15,-0.25 -0.25,-0.65 -0.25,-0.69 0,-0.09 0.1,-0.09 0.12,-0.09 0.1,0 0.11,0.02 0.15,0.21 0.11,0.41 0.24,0.75 0.51,0.75 0.18,0 0.23,-0.15 0.23,-0.34 0,-0.13 -0.06,-0.39 -0.11,-0.57 -0.05,-0.19 -0.12,-0.48 -0.15,-0.63 z"
       id="path4552" /></g>  <g
     style="font-style:normal;font-variant:normal;font-weight:normal;font-stretch:normal;letter-spacing:normal;word-spacing:normal;text-anchor:start;fill:none;stroke:#000000;stroke-width:0.73650789;stroke-linecap:butt;stroke-linejoin:miter;stroke-miterlimit:10.43299961;stroke-dasharray:none;stroke-dashoffset:0;stroke-opacity:1"
     ns0:preamble="/home/andre/MEGA/Inkscape/preamble.ini"
     ns0:text="\\[m\\]"
     word-spacing="normal"
     letter-spacing="normal"
     font-size-adjust="none"
     font-stretch="normal"
     font-weight="normal"
     font-variant="normal"
     font-style="normal"
     stroke-miterlimit="10.433"
     xml:space="preserve"
     transform="matrix(1.5769309,0,0,-1.5769309,-437.61842,1189.2312)"
     id="g4838"><path
       id="path4840"
       d="m 391.79,707.71 v -0.01 l -0.01,-0.02 v -0.01 -0.02 l -0.01,-0.03 -0.01,-0.03 v -0.03 l -0.01,-0.04 -0.01,-0.03 -0.01,-0.03 v -0.01 -0.02 l -0.01,-0.01 v -0.02 -0.01 l -0.01,-0.01 v -0.02 -0.01 -0.01 -0.01 l -0.01,-0.01 v -0.01 -0.01 0 -0.01 -0.01 c 0,-0.18 0.14,-0.26 0.29,-0.26 0.12,0 0.3,0.07 0.37,0.27 0.01,0.02 0.13,0.49 0.19,0.74 l 0.21,0.89 c 0.06,0.22 0.12,0.44 0.17,0.67 0.04,0.17 0.12,0.46 0.13,0.5 0.15,0.3 0.68,1.21 1.62,1.21 0.45,0 0.54,-0.37 0.54,-0.7 0,-0.25 -0.07,-0.52 -0.15,-0.82 l -0.28,-1.16 -0.19,-0.75 c -0.05,-0.2 -0.13,-0.54 -0.13,-0.59 0,-0.18 0.14,-0.26 0.28,-0.26 0.31,0 0.37,0.24 0.45,0.56 0.14,0.56 0.51,2.01 0.6,2.4 0.03,0.12 0.56,1.32 1.64,1.32 0.43,0 0.54,-0.34 0.54,-0.7 0,-0.56 -0.42,-1.7 -0.62,-2.22 -0.09,-0.24 -0.13,-0.35 -0.13,-0.55 0,-0.47 0.35,-0.81 0.82,-0.81 0.93,0 1.3,1.45 1.3,1.53 0,0.1 -0.09,0.1 -0.12,0.1 -0.1,0 -0.1,-0.04 -0.15,-0.18 -0.15,-0.53 -0.47,-1.24 -1.01,-1.24 -0.17,0 -0.24,0.1 -0.24,0.33 0,0.25 0.09,0.49 0.18,0.71 0.19,0.51 0.6,1.62 0.6,2.18 0,0.65 -0.39,1.07 -1.14,1.07 -0.75,0 -1.25,-0.44 -1.62,-0.97 -0.01,0.13 -0.04,0.47 -0.32,0.71 -0.25,0.21 -0.57,0.26 -0.82,0.26 -0.89,0 -1.38,-0.64 -1.55,-0.87 -0.05,0.57 -0.46,0.87 -0.91,0.87 -0.46,0 -0.65,-0.39 -0.74,-0.57 -0.18,-0.35 -0.31,-0.93 -0.31,-0.96 0,-0.1 0.1,-0.1 0.12,-0.1 0.1,0 0.11,0.01 0.17,0.22 0.17,0.71 0.37,1.19 0.73,1.19 0.16,0 0.31,-0.08 0.31,-0.46 0,-0.21 -0.03,-0.32 -0.16,-0.83 z"
       inkscape:connector-curvature="0"
       style="fill:#000000;stroke-width:0" /></g>  <g
     id="g1328"
     transform="matrix(1.9965398,0,0,1.9965398,-345.54244,-72.463894)"
     ns1:text="$x$"
     style="stroke-width:0.50086653;fill:#0000ff">
    <g
       id="surface1"
       style="stroke-width:0.50086653;fill:#0000ff">
      <g
         id="g1325"
         style="fill:#0000ff;fill-opacity:1;stroke-width:0.50086653">
        <path
           id="path1323"
           transform="translate(178.584,110.991)"
           d="M 3.328125,-3.015625 C 3.390625,-3.265625 3.625,-4.1875 4.3125,-4.1875 c 0.046875,0 0.296875,0 0.5,0.125 C 4.53125,-4 4.34375,-3.765625 4.34375,-3.515625 c 0,0.15625 0.109375,0.34375 0.375,0.34375 0.21875,0 0.53125,-0.171875 0.53125,-0.578125 0,-0.515625 -0.578125,-0.65625 -0.921875,-0.65625 -0.578125,0 -0.921875,0.53125 -1.046875,0.75 -0.25,-0.65625 -0.78125,-0.75 -1.078125,-0.75 -1.03125,0 -1.609375,1.28125 -1.609375,1.53125 0,0.109375 0.109375,0.109375 0.125,0.109375 0.078125,0 0.109375,-0.03125 0.125,-0.109375 0.34375,-1.0625 1,-1.3125 1.34375,-1.3125 0.1875,0 0.53125,0.09375 0.53125,0.671875 0,0.3125 -0.171875,0.96875 -0.53125,2.375 -0.15625,0.609375 -0.515625,1.03125 -0.953125,1.03125 -0.0625,0 -0.28125,0 -0.5,-0.125 0.25,-0.0625 0.46875,-0.265625 0.46875,-0.546875 0,-0.265625 -0.21875,-0.34375 -0.359375,-0.34375 -0.3125,0 -0.546875,0.25 -0.546875,0.578125 0,0.453125 0.484375,0.65625 0.921875,0.65625 0.671875,0 1.03125,-0.703125 1.046875,-0.75 0.125,0.359375 0.484375,0.75 1.078125,0.75 1.03125,0 1.59375,-1.28125 1.59375,-1.53125 0,-0.109375 -0.078125,-0.109375 -0.109375,-0.109375 -0.09375,0 -0.109375,0.046875 -0.140625,0.109375 -0.328125,1.078125 -1,1.3125 -1.3125,1.3125 -0.390625,0 -0.546875,-0.3125 -0.546875,-0.65625 0,-0.21875 0.046875,-0.4375 0.15625,-0.875 z m 0,0"
           style="stroke:none;stroke-width:0.50086653;fill:#0000ff"
           inkscape:connector-curvature="0" />
      </g>
    </g>
  </g>
  <g
     id="g1571"
     style="stroke-width:0.50086653;fill:#0000ff"
     transform="matrix(1.9965398,0,0,1.9965398,-142.08735,-114.07729)"
     ns1:text="$y$">
    <g
       id="g1569"
       style="fill:#0000ff">
      <g
         id="g1567"
         style="fill:#0000ff;fill-opacity:1">
        <path
           id="path1565"
           transform="translate(178.584,110.991)"
           d="M 4.84375 -3.796875 C 4.890625 -3.9375 4.890625 -3.953125 4.890625 -4.03125 C 4.890625 -4.203125 4.75 -4.296875 4.59375 -4.296875 C 4.5 -4.296875 4.34375 -4.234375 4.25 -4.09375 C 4.234375 -4.03125 4.140625 -3.734375 4.109375 -3.546875 C 4.03125 -3.296875 3.96875 -3.015625 3.90625 -2.75 L 3.453125 -0.953125 C 3.421875 -0.8125 2.984375 -0.109375 2.328125 -0.109375 C 1.828125 -0.109375 1.71875 -0.546875 1.71875 -0.921875 C 1.71875 -1.375 1.890625 -2 2.21875 -2.875 C 2.375 -3.28125 2.421875 -3.390625 2.421875 -3.59375 C 2.421875 -4.03125 2.109375 -4.40625 1.609375 -4.40625 C 0.65625 -4.40625 0.296875 -2.953125 0.296875 -2.875 C 0.296875 -2.765625 0.390625 -2.765625 0.40625 -2.765625 C 0.515625 -2.765625 0.515625 -2.796875 0.5625 -2.953125 C 0.84375 -3.890625 1.234375 -4.1875 1.578125 -4.1875 C 1.65625 -4.1875 1.828125 -4.1875 1.828125 -3.875 C 1.828125 -3.625 1.71875 -3.359375 1.65625 -3.171875 C 1.25 -2.109375 1.078125 -1.546875 1.078125 -1.078125 C 1.078125 -0.1875 1.703125 0.109375 2.296875 0.109375 C 2.6875 0.109375 3.015625 -0.0625 3.296875 -0.34375 C 3.171875 0.171875 3.046875 0.671875 2.65625 1.203125 C 2.390625 1.53125 2.015625 1.828125 1.5625 1.828125 C 1.421875 1.828125 0.96875 1.796875 0.796875 1.40625 C 0.953125 1.40625 1.09375 1.40625 1.21875 1.28125 C 1.328125 1.203125 1.421875 1.0625 1.421875 0.875 C 1.421875 0.5625 1.15625 0.53125 1.0625 0.53125 C 0.828125 0.53125 0.5 0.6875 0.5 1.171875 C 0.5 1.671875 0.9375 2.046875 1.5625 2.046875 C 2.578125 2.046875 3.609375 1.140625 3.890625 0.015625 Z M 4.84375 -3.796875 "
           style="stroke:none;fill:#0000ff" />
      </g>
    </g>
  </g>
  <g
     id="g1692"
     style="stroke-width:0.50086653;fill:#0000ff"
     transform="matrix(1.9965398,0,0,1.9965398,-307.08734,-182.07729)"
     ns1:text="$z$">
    <g
       id="g1690"
       style="fill:#0000ff">
      <g
         id="g1688"
         style="fill:#0000ff;fill-opacity:1">
        <path
           id="path1686"
           transform="translate(178.584,110.991)"
           d="m 1.328125,-0.828125 c 0.53125,-0.578125 0.828125,-0.828125 1.1875,-1.140625 0,0 0.609375,-0.53125 0.96875,-0.890625 C 4.4375,-3.78125 4.65625,-4.265625 4.65625,-4.3125 c 0,-0.09375 -0.09375,-0.09375 -0.109375,-0.09375 -0.078125,0 -0.09375,0.015625 -0.15625,0.109375 -0.296875,0.484375 -0.5,0.640625 -0.734375,0.640625 -0.25,0 -0.359375,-0.15625 -0.515625,-0.328125 -0.1875,-0.21875 -0.359375,-0.421875 -0.6875,-0.421875 -0.75,0 -1.203125,0.921875 -1.203125,1.140625 0,0.046875 0.03125,0.109375 0.109375,0.109375 0.09375,0 0.109375,-0.046875 0.140625,-0.109375 0.1875,-0.46875 0.765625,-0.46875 0.84375,-0.46875 0.203125,0 0.390625,0.0625 0.625,0.140625 0.40625,0.15625 0.515625,0.15625 0.765625,0.15625 -0.359375,0.421875 -1.1875,1.140625 -1.375,1.296875 l -0.90625,0.84375 C 0.78125,-0.625 0.421875,-0.0625 0.421875,0.015625 c 0,0.09375 0.109375,0.09375 0.125,0.09375 0.078125,0 0.09375,-0.015625 0.15625,-0.125 0.234375,-0.359375 0.53125,-0.625 0.859375,-0.625 0.21875,0 0.328125,0.09375 0.578125,0.375 0.15625,0.21875 0.34375,0.375 0.625,0.375 1,0 1.578125,-1.265625 1.578125,-1.53125 0,-0.046875 -0.046875,-0.109375 -0.125,-0.109375 -0.09375,0 -0.109375,0.0625 -0.140625,0.140625 C 3.84375,-0.75 3.203125,-0.5625 2.875,-0.5625 c -0.1875,0 -0.375,-0.0625 -0.578125,-0.125 -0.34375,-0.125 -0.5,-0.171875 -0.703125,-0.171875 -0.015625,0 -0.171875,0 -0.265625,0.03125 z m 0,0"
           style="stroke:none;fill:#0000ff"
           inkscape:connector-curvature="0" />
      </g>
    </g>
  </g>
</svg>
